<?xml version="1.0" standalone="no"?>
<!DOCTYPE svg PUBLIC "-//W3C//DTD SVG 1.1//EN" "http://www.w3.org/Graphics/SVG/1.1/DTD/svg11.dtd" >
<svg xmlns="http://www.w3.org/2000/svg" xmlns:xlink="http://www.w3.org/1999/xlink" version="1.1" viewBox="-10 0 266 256">
   <path fill="currentColor"
d="M112 14q6 2 13 2q13 1 27 12l-2 4q-3 0 -7 -1q-1 0 -1 -1q-5 0 -12 2h-3q-4 2 -14 4h-1q-3 1 -1 -1q5 -4 10 -9q5 -1 -10 -10q-3 -1 1 -2zM193 41q1 -5 4 -3q15 5 22 8q1 3 0 4q-4 0 -9 1h-9q-49 10 -67 42q0 3 1 4q2 0 3 -2q3 -3 7 -2q14 2 11 7q3 2 7 1q3 -4 5 -2
q1 1 3 2h5q5 1 13 4q-2 5 -3 5q-7 -2 -15 17q-13 29 -35 64q-11 15 -12 21q-2 6 -3 6q-4 0 -4 -7q-1 -7 -2 -15q-4 -12 -3 -25q0 -2 2 0q-1 11 7 26q1 4 3 4q1 0 3 -3q7 -10 15 -23q17 -26 25 -61q1 -9 -5 -9q-5 2 -10 1q-39 66 -89 97q-2 1 0 -1q55 -44 77 -97q1 -5 -2 -6
q-5 1 -5 -4q-6 -10 33 -37q4 -2 -2 -1q-79 23 -100 28q-10 3 -13 4t-5 1q-7 0 -17 -2q-3 0 -3 -1q1 -1 5 -2q67 -9 155 -38q4 -1 6 -4q0 -1 1 -2z" />
</svg>
